# xmcd
#
# Track frame offsets: 
#        150
#        16583
#        32536
#        49054
#        72510
#        91196
#        108668
#        128376
#        142064
#        164347
#        176903
#        192366
#        208030
#        228832
#        247105
#        265412
#        285840
#        303087
#        320059
#        337028
#
# Disc length: 4736 seconds
#
# Revision: 6
# Processed by: cddbd v1.5.2PL0 Copyright (c) Steve Scherf et al.
# Submitted via: ExactAudioCopy v0.99pb5
#
DISCID=1e127e14
DTITLE=Laura Fygi - Song Book: 20 Jazz Greatest Hits
DYEAR=2004
DGENRE=Jazz
TTITLE0=Dream A Little Dream
TTITLE1=Historia De Un Amor
TTITLE2=Don't It Make My Brown Eyes Blue
TTITLE3=How Am I Supposed To Live Without You
TTITLE4=Abrazame
TTITLE5=Eternal Flame
TTITLE6=Disse Alguem (All Of Me)
TTITLE7=Besame Mucho
TTITLE8=The Lady Wants To Know
TTITLE9=I Will Wait For You
TTITLE10=Quizas, Quizas, Quizas
TTITLE11=Les Feuilles Mortes (Autumn Leaves)
TTITLE12=The Summer Knows
TTITLE13=Corcovado (Quite Nights Of Quiet Stars)
TTITLE14=The Windmills Of Your Mind
TTITLE15=Midnight Stroll
TTITLE16=I Need To Be In Love
TTITLE17=La, La, La Love Song
TTITLE18=What Are You Doing The Rest Of Your Life
TTITLE19=Baby Come To Me - Duet with So Wing Hong
EXTD=YEAR: 2004
EXTT0=
EXTT1=
EXTT2=
EXTT3=
EXTT4=
EXTT5=
EXTT6=
EXTT7=
EXTT8=
EXTT9=
EXTT10=
EXTT11=
EXTT12=
EXTT13=
EXTT14=
EXTT15=
EXTT16=
EXTT17=
EXTT18=
EXTT19=
PLAYORDER=
